# xmcd CD database file
#
# Track frame offsets:
#	150
#	23849
#	69816
#	103226
#	123162
#	163426
#
# Disc length: 3100 seconds
#
# Revision: 0
# Processed by: cddbd v1.5.1PL0 Copyright (c) Steve Scherf et al.
# Submitted via: CDex 1.51
#
DISCID=4a0c1a06
DTITLE=MU - time, milk and magic
DYEAR=2004
DGENRE=Jazz
TTITLE0=frammento
TTITLE1=Bianche Isole Esoteriche
TTITLE2=Dylan Thomas, parte 1: Tempo
TTITLE3=Dylan Thomas, parte 2: Latte
TTITLE4=Dylan Thomas, parte 3: Magia
TTITLE5=Il ritorno del Re Lobo
EXTD=YEAR: 2004
EXTT0=
EXTT1=
EXTT2=
EXTT3=
EXTT4=
EXTT5=
PLAYORDER=
